<?xml version="1.0" encoding="UTF-8"?>
<!-- Created with Inkscape (http://www.inkscape.org/) -->
<svg width="115.85mm" height="76.072mm" version="1.1" viewBox="0 0 115.85 76.072" xmlns="http://www.w3.org/2000/svg" xmlns:cc="http://creativecommons.org/ns#" xmlns:dc="http://purl.org/dc/elements/1.1/" xmlns:rdf="http://www.w3.org/1999/02/22-rdf-syntax-ns#">
 <defs>
  <marker id="TriangleInL" overflow="visible" orient="auto">
   <path transform="scale(-.8)" d="m5.77 0-8.65 5v-10z" fill-rule="evenodd" stroke="#000" stroke-width="1pt"/>
  </marker>
  <marker id="TriangleInL-3" overflow="visible" orient="auto">
   <path transform="scale(-.8)" d="m5.77 0-8.65 5v-10z" fill-rule="evenodd" stroke="#000" stroke-width="1pt"/>
  </marker>
  <marker id="TriangleInL-3-1" overflow="visible" orient="auto">
   <path transform="scale(-.8)" d="m5.77 0-8.65 5v-10z" fill-rule="evenodd" stroke="#000" stroke-width="1pt"/>
  </marker>
  <marker id="TriangleInL-3-1-3" overflow="visible" orient="auto">
   <path transform="scale(-.8)" d="m5.77 0-8.65 5v-10z" fill-rule="evenodd" stroke="#000" stroke-width="1pt"/>
  </marker>
 </defs>
 <metadata>
  <rdf:RDF>
   <cc:Work rdf:about="">
    <dc:format>image/svg+xml</dc:format>
    <dc:type rdf:resource="http://purl.org/dc/dcmitype/StillImage"/>
    <dc:title/>
   </cc:Work>
  </rdf:RDF>
 </metadata>
 <g transform="translate(185.29 -90.603)">
  <g stroke="#000">
   <g fill="none" stroke-width="1.6042">
    <rect x="-144.76" y="91.405" width="34.777" height="34.777" ry="5.7723"/>
    <rect x="-184.49" y="131.1" width="34.777" height="34.777" ry="5.7723"/>
    <rect x="-144.76" y="131.1" width="34.777" height="34.777" ry="5.7723"/>
    <rect x="-105.02" y="131.1" width="34.777" height="34.777" ry="5.7723"/>
   </g>
   <path d="m-127.42 105.53v9.2604" fill="none" marker-start="url(#TriangleInL)" stroke-width=".79375"/>
   <rect x="-128.06" y="107.65" width="1.2907" height="9.129" stroke-width=".29908"/>
   <g transform="rotate(90 -127.45 148.64)">
    <path d="m-127.42 105.53v9.2604" fill="none" marker-start="url(#TriangleInL-3)" stroke-width=".79375"/>
    <rect x="-128.06" y="107.65" width="1.2907" height="9.129" stroke-width=".29908"/>
   </g>
   <g transform="rotate(180 -127.42 128.75)">
    <path d="m-127.42 105.53v9.2604" fill="none" marker-start="url(#TriangleInL-3-1)" stroke-width=".79375"/>
    <rect x="-128.06" y="107.65" width="1.2907" height="9.129" stroke-width=".29908"/>
   </g>
   <g transform="rotate(-90 -127.48 148.72)">
    <path d="m-127.42 105.53v9.2604" fill="none" marker-start="url(#TriangleInL-3-1-3)" stroke-width=".79375"/>
    <rect x="-128.06" y="107.65" width="1.2907" height="9.129" stroke-width=".29908"/>
   </g>
  </g>
 </g>
</svg>
